<?xml version="1.0" encoding="UTF-8"?>
<svg version="1.1" xmlns="http://www.w3.org/2000/svg" width="1531" height="1463">
<path d="M0 0 C3.375 0.625 3.375 0.625 7 2 C7.22985596 2.83611816 7.45971191 3.67223633 7.6965332 4.53369141 C9.67690137 9.80008346 13.49209982 12.96312985 17.48046875 16.8359375 C18.32668289 17.67412018 19.17289703 18.51230286 20.04475403 19.37588501 C22.7497042 22.05187719 25.46790814 24.71389657 28.1875 27.375 C30.88665341 30.03145521 33.58292265 32.69077269 36.27668762 35.35269165 C37.95144954 37.00599916 39.62971393 38.65576899 41.3120575 40.30136108 C44.80421377 43.73491216 48.21312346 47.17602873 51.40161133 50.89501953 C55.443961 55.5987113 59.82783666 59.94087403 64.23036194 64.30552673 C65.75593977 65.81812332 67.27818086 67.33401202 68.79968262 68.85070801 C72.03028953 72.06999112 75.26483223 75.28530112 78.5 78.5 C82.25451127 82.2307565 86.00730613 85.96320751 89.75587463 89.69993591 C91.24203689 91.17970556 92.73121996 92.65638565 94.22058105 94.13293457 C98.70879577 98.60499684 103.03297938 103.12317287 107.15637207 107.93151855 C110.67961143 111.88446108 114.47112697 115.57863046 118.23036194 119.30552673 C119.75593977 120.81812332 121.27818086 122.33401202 122.79968262 123.85070801 C126.03028953 127.06999112 129.26483223 130.28530112 132.5 133.5 C136.25451127 137.2307565 140.00730613 140.96320751 143.75587463 144.69993591 C145.24203689 146.17970556 146.73121996 147.65638565 148.22058105 149.13293457 C152.70879577 153.60499684 157.03297938 158.12317287 161.15637207 162.93151855 C164.67961143 166.88446108 168.47112697 170.57863046 172.23036194 174.30552673 C173.75593977 175.81812332 175.27818086 177.33401202 176.79968262 178.85070801 C180.03028953 182.06999112 183.26483223 185.28530112 186.5 188.5 C190.25451127 192.2307565 194.00730613 195.96320751 197.75587463 199.69993591 C199.24203689 201.17970556 200.73121996 202.65638565 202.22058105 204.13293457 C206.70879577 208.60499684 211.03297938 213.12317287 215.15637207 217.93151855 C218.67961143 221.88446108 222.47112697 225.57863046 226.23036194 229.30552673 C227.75593977 230.81812332 229.27818086 232.33401202 230.79968262 233.85070801 C234.03028953 237.06999112 237.26483223 240.28530112 240.5 243.5 C244.25451127 247.2307565 248.00730613 250.96320751 251.75587463 254.69993591 C253.24203689 256.17970556 254.73121996 257.65638565 256.22058105 259.13293457 C260.70879577 263.60499684 265.03297938 268.12317287 269.15637207 272.93151855 C272.67961143 276.88446108 276.47112697 280.57863046 280.23036194 284.30552673 C281.75593977 285.81812332 283.27818086 287.33401202 284.79968262 288.85070801 C288.03028953 292.06999112 291.26483223 295.28530112 294.5 298.5 C298.25451127 302.2307565 302.00730613 305.96320751 305.75587463 309.69993591 C307.24203689 311.17970556 308.73121996 312.65638565 310.22058105 314.13293457 C314.70879577 318.60499684 319.03297938 323.12317287 323.15637207 327.93151855 C326.67961143 331.88446108 330.47112697 335.57863046 334.23036194 339.30552673 C335.75593977 340.81812332 337.27818086 342.33401202 338.79968262 343.85070801 C342.03028953 347.06999112 345.26483223 350.28530112 348.5 353.5 C352.25451127 357.2307565 356.00730613 360.96320751 359.75587463 364.69993591 C361.24203689 366.17970556 362.73121996 367.65638565 364.22058105 369.13293457 C368.70879577 373.60499684 373.03297938 378.12317287 377.15637207 382.93151855 C380.67961143 386.88446108 384.47112697 390.57863046 388.23036194 394.30552673 C389.75593977 395.81812332 391.27818086 397.33401202 392.79968262 398.85070801 C396.03028953 402.06999112 399.26483223 405.28530112 402.5 408.5 C406.25451127 412.2307565 410.00730613 415.96320751 413.75587463 419.69993591 C415.24203689 421.17970556 416.73121996 422.65638565 418.22058105 424.13293457 C422.82949207 428.72525876 427.29607707 433.3626195 431.53018188 438.30310059 C433.46708175 440.5392441 435.52205487 442.63503257 437.62109375 444.71875 C438.80541992 445.89824219 438.80541992 445.89824219 440.01367188 447.1015625 C440.81353516 447.89304687 441.61339844 448.68453125 442.4375 449.5 C443.26443359 450.32242187 444.09136719 451.14484375 444.94335938 451.9921875 C446.95994959 453.99712113 448.97885236 455.99966253 451 458 C449.57147636 461.25560827 447.82975638 463.41854803 445.31982422 465.9230957 C444.56498749 466.68100906 443.81015076 467.43892242 443.03244019 468.21980286 C442.2147818 469.03027573 441.39712341 469.8407486 440.5546875 470.67578125 C439.2889238 471.94085762 439.2889238 471.94085762 437.99758911 473.23149109 C436.20941562 475.01664322 434.41881206 476.79936398 432.62597656 478.57983398 C429.90118604 481.28648825 427.18436254 484.00093764 424.46875 486.71679688 C422.72703129 488.45359525 420.98485805 490.18993794 419.2421875 491.92578125 C418.4366745 492.73018143 417.6311615 493.5345816 416.80123901 494.36335754 C412.56392044 498.56573786 408.24539295 502.60410378 403.72415161 506.4992218 C401.63818843 508.31493688 399.66586129 510.22025654 397.71875 512.18359375 C396.67460937 513.23256836 396.67460937 513.23256836 395.609375 514.30273438 C394.56523437 515.35944336 394.56523437 515.35944336 393.5 516.4375 C392.40945313 517.53481445 392.40945313 517.53481445 391.296875 518.65429688 C389.52890377 520.43389949 387.76379821 522.21626446 386 524 C380.22182871 519.1974522 374.89832225 514.04393696 369.59375 508.7265625 C368.71021851 507.84398773 367.82668701 506.96141296 366.91638184 506.05209351 C364.58280517 503.71936708 362.2516665 501.38423659 359.92132568 499.04827881 C358.5026376 497.62764122 357.08201953 496.20896459 355.66064453 494.79101562 C352.90647197 492.043058 350.1558274 489.29161726 347.40625 486.5390625 C346.56751343 485.70235016 345.72877686 484.86563782 344.86462402 484.00357056 C341.32389913 480.44885477 337.84859886 476.88718656 334.58203125 473.07763672 C330.54267053 468.38610121 326.16425325 464.05128392 321.76963806 459.69447327 C320.24406023 458.18187668 318.72181914 456.66598798 317.20031738 455.14929199 C313.96971047 451.93000888 310.73516777 448.71469888 307.5 445.5 C303.74548873 441.7692435 299.99269387 438.03679249 296.24412537 434.30006409 C294.75796311 432.82029444 293.26878004 431.34361435 291.77941895 429.86706543 C287.29120423 425.39500316 282.96702062 420.87682713 278.84362793 416.06848145 C275.32038857 412.11553892 271.52887303 408.42136954 267.76963806 404.69447327 C266.24406023 403.18187668 264.72181914 401.66598798 263.20031738 400.14929199 C259.96971047 396.93000888 256.73516777 393.71469888 253.5 390.5 C249.74548873 386.7692435 245.99269387 383.03679249 242.24412537 379.30006409 C240.75796311 377.82029444 239.26878004 376.34361435 237.77941895 374.86706543 C233.29120423 370.39500316 228.96702062 365.87682713 224.84362793 361.06848145 C221.32038857 357.11553892 217.52887303 353.42136954 213.76963806 349.69447327 C212.24406023 348.18187668 210.72181914 346.66598798 209.20031738 345.14929199 C205.96971047 341.93000888 202.73516777 338.71469888 199.5 335.5 C195.74548873 331.7692435 191.99269387 328.03679249 188.24412537 324.30006409 C186.75796311 322.82029444 185.26878004 321.34361435 183.77941895 319.86706543 C179.29120423 315.39500316 174.96702062 310.87682713 170.84362793 306.06848145 C167.32038857 302.11553892 163.52887303 298.42136954 159.76963806 294.69447327 C158.24406023 293.18187668 156.72181914 291.66598798 155.20031738 290.14929199 C151.96971047 286.93000888 148.73516777 283.71469888 145.5 280.5 C141.74548873 276.7692435 137.99269387 273.03679249 134.24412537 269.30006409 C132.75796311 267.82029444 131.26878004 266.34361435 129.77941895 264.86706543 C125.29120423 260.39500316 120.96702062 255.87682713 116.84362793 251.06848145 C113.32038857 247.11553892 109.52887303 243.42136954 105.76963806 239.69447327 C104.24406023 238.18187668 102.72181914 236.66598798 101.20031738 235.14929199 C97.96971047 231.93000888 94.73516777 228.71469888 91.5 225.5 C87.74548873 221.7692435 83.99269387 218.03679249 80.24412537 214.30006409 C78.75796311 212.82029444 77.26878004 211.34361435 75.77941895 209.86706543 C71.90378299 206.00537734 68.06671367 202.15915219 64.50439453 198.00439453 C60.47859693 193.30983121 56.09821697 188.98554398 51.70850754 184.63334274 C50.17508443 183.11288764 48.64498654 181.58915163 47.1156311 180.06460571 C43.87158649 176.83188457 40.62359568 173.60314686 37.375 170.375 C33.59892488 166.62263782 29.82454655 162.86859998 26.05437088 159.1103096 C24.5559148 157.61827561 23.0544524 156.12931453 21.55282593 154.64047241 C20.63482208 153.72577179 19.71681824 152.81107117 18.77099609 151.86865234 C17.96826263 151.0711557 17.16552917 150.27365906 16.33847046 149.45199585 C13.746291 146.73397422 11.39315245 143.89428812 9 141 C9.48859408 197.18799348 9.98076854 253.37595464 10.47766375 309.56387536 C10.53648563 316.21567905 10.59527902 322.86748299 10.65405273 329.51928711 C10.65990135 330.18114887 10.66574996 330.84301062 10.6717758 331.52492879 C10.8664762 353.56012206 11.05879188 375.59533525 11.25006884 397.63055851 C11.4408027 419.59707061 11.63412152 441.56355889 11.82977968 463.53002769 C11.95017658 477.05588629 12.06861971 490.58175898 12.1844653 504.10765735 C12.2643817 513.4158514 12.34683625 522.72402093 12.43117779 532.03217592 C12.47957596 537.38142567 12.5269602 542.73067856 12.57129288 548.07996368 C12.58805834 550.08421366 12.6048715 552.08846324 12.62173462 554.0927124 C12.62987338 555.06440203 12.63801215 556.03609165 12.64639754 557.03722642 C12.71081728 564.40716264 12.80954209 571.77634317 12.91781198 579.14575108 C12.98861611 584.43265193 12.99482336 589.715285 12.9524316 595.00245621 C12.93144609 598.41069015 12.94537252 601.81826271 12.96576477 605.22647325 C12.96692792 606.79978299 12.95270156 608.37319944 12.92112189 609.94619264 C12.73426004 619.57276775 13.9519297 625.64651456 20.78108436 632.85982895 C21.51332652 633.5660854 22.24556868 634.27234184 23 635 C23.97941206 636.0542185 24.95751161 637.1096605 25.93338013 638.16716003 C26.78052582 639.0068483 27.62767151 639.84653656 28.50048828 640.71166992 C28.978237 641.1881044 29.45598572 641.66453888 29.94821167 642.15541077 C31.484299 643.68515574 33.02725594 645.20775728 34.5703125 646.73046875 C35.66221138 647.81607261 36.7535803 648.90220972 37.8444519 649.98884583 C40.68803481 652.81927409 43.53716368 655.64404382 46.38806152 658.46710205 C50.95683955 662.99237249 55.51865649 667.52463349 60.07720566 672.06020546 C61.65386027 673.6267815 63.23395487 675.18982126 64.81448364 676.75248718 C69.45223391 681.35153952 73.9428528 686.00169949 78.19039917 690.96430969 C81.6400539 694.84496037 85.35868435 698.46629387 89.04516602 702.12033081 C90.53714243 703.59931909 92.02577553 705.08160502 93.51367188 706.56469727 C96.67294765 709.71265249 99.83616023 712.8566327 103 716 C106.67190789 719.64814783 110.34209557 723.29799344 114.00805664 726.95211792 C115.46097908 728.39865069 116.91692281 729.84209167 118.37304688 731.28540039 C122.81237351 735.70839426 127.0826458 740.18247568 131.16210938 744.93725586 C134.62499035 748.82379695 138.34925957 752.45695203 142.04516602 756.12033081 C143.53714243 757.59931909 145.02577553 759.08160502 146.51367188 760.56469727 C149.67294765 763.71265249 152.83616023 766.8566327 156 770 C159.67190789 773.64814783 163.34209557 777.29799344 167.00805664 780.95211792 C168.46097908 782.39865069 169.91692281 783.84209167 171.37304688 785.28540039 C175.81237351 789.70839426 180.0826458 794.18247568 184.16210938 798.93725586 C187.62499035 802.82379695 191.34925957 806.45695203 195.04516602 810.12033081 C196.53714243 811.59931909 198.02577553 813.08160502 199.51367188 814.56469727 C202.67294765 817.71265249 205.83616023 820.8566327 209 824 C212.67190789 827.64814783 216.34209557 831.29799344 220.00805664 834.95211792 C221.46097908 836.39865069 222.91692281 837.84209167 224.37304688 839.28540039 C228.81237351 843.70839426 233.0826458 848.18247568 237.16210938 852.93725586 C240.62499035 856.82379695 244.34925957 860.45695203 248.04516602 864.12033081 C249.53714243 865.59931909 251.02577553 867.08160502 252.51367188 868.56469727 C255.67294765 871.71265249 258.83616023 874.8566327 262 878 C265.67190789 881.64814783 269.34209557 885.29799344 273.00805664 888.95211792 C274.46097908 890.39865069 275.91692281 891.84209167 277.37304688 893.28540039 C281.81237351 897.70839426 286.0826458 902.18247568 290.16210938 906.93725586 C293.62499035 910.82379695 297.34925957 914.45695203 301.04516602 918.12033081 C302.53714243 919.59931909 304.02577553 921.08160502 305.51367188 922.56469727 C308.67294765 925.71265249 311.83616023 928.8566327 315 932 C318.67190789 935.64814783 322.34209557 939.29799344 326.00805664 942.95211792 C327.46097908 944.39865069 328.91692281 945.84209167 330.37304688 947.28540039 C334.81237351 951.70839426 339.0826458 956.18247568 343.16210938 960.93725586 C346.62499035 964.82379695 350.34925957 968.45695203 354.04516602 972.12033081 C355.53714243 973.59931909 357.02577553 975.08160502 358.51367188 976.56469727 C361.67294765 979.71265249 364.83616023 982.8566327 368 986 C371.67190789 989.64814783 375.34209557 993.29799344 379.00805664 996.95211792 C380.46097908 998.39865069 381.91692281 999.84209167 383.37304688 1001.28540039 C387.81110147 1005.7071269 392.08166808 1010.17935593 396.15994263 1014.93286133 C400.08903923 1019.34684735 404.33857346 1023.45949855 408.52734375 1027.625 C409.52647028 1028.62225677 410.5253728 1029.61973802 411.52406311 1030.61743164 C414.1274695 1033.21705679 416.7338667 1035.81366231 419.34094238 1038.40960693 C422.01104274 1041.06939763 424.67824277 1043.7320934 427.34570312 1046.39453125 C432.56100038 1051.59916888 437.77946716 1056.8006134 443 1062 C441.7082122 1064.84015307 440.35216917 1066.89698388 438.14599609 1069.09692383 C437.57134613 1069.67465042 436.99669617 1070.25237701 436.40463257 1070.84761047 C435.7838382 1071.46121933 435.16304382 1072.07482819 434.5234375 1072.70703125 C433.87935944 1073.35065109 433.23528137 1073.99427094 432.57168579 1074.65739441 C431.20721862 1076.01884298 429.84032432 1077.37786275 428.47119141 1078.73461914 C426.39826306 1080.78944015 424.33330021 1082.85199987 422.26953125 1084.91601562 C420.93796785 1086.24265725 419.60595051 1087.56884344 418.2734375 1088.89453125 C417.66478851 1089.50206741 417.05613953 1090.10960358 416.42904663 1090.73554993 C412.71137588 1094.41326166 408.86805693 1097.88768952 404.91421509 1101.30915833 C402.07920647 1103.81334438 399.41022043 1106.46496469 396.75 1109.15234375 C396.20641846 1109.69734024 395.66283691 1110.24233673 395.1027832 1110.80384827 C393.39945185 1112.51269217 391.69966674 1114.22501197 390 1115.9375 C388.83226626 1117.11026009 387.66429926 1118.28278798 386.49609375 1119.45507812 C383.66136766 1122.30071689 380.82981176 1125.14947453 378 1128 C374.76951252 1126.5800745 372.61757512 1124.86380613 370.13671875 1122.3671875 C369.41419922 1121.64273437 368.69167969 1120.91828125 367.94726562 1120.171875 C367.20154297 1119.41390625 366.45582031 1118.6559375 365.6875 1117.875 C364.95337891 1117.14023438 364.21925781 1116.40546875 363.46289062 1115.6484375 C360.15489743 1112.31402732 356.94743239 1108.94901161 353.88989258 1105.38330078 C349.78705713 1100.67095137 345.39091761 1096.27671085 340.95483398 1091.87966919 C339.46285757 1090.40068091 337.97422447 1088.91839498 336.48632812 1087.43530273 C333.32705235 1084.28734751 330.16383977 1081.1433673 327 1078 C323.32809211 1074.35185217 319.65790443 1070.70200656 315.99194336 1067.04788208 C314.53902092 1065.60134931 313.08307719 1064.15790833 311.62695312 1062.71459961 C307.18762649 1058.29160574 302.9173542 1053.81752432 298.83789062 1049.06274414 C295.37500965 1045.17620305 291.65074043 1041.54304797 287.95483398 1037.87966919 C286.46285757 1036.40068091 284.97422447 1034.91839498 283.48632812 1033.43530273 C280.32705235 1030.28734751 277.16383977 1027.1433673 274 1024 C270.32809211 1020.35185217 266.65790443 1016.70200656 262.99194336 1013.04788208 C261.53902092 1011.60134931 260.08307719 1010.15790833 258.62695312 1008.71459961 C254.18762649 1004.29160574 249.9173542 999.81752432 245.83789062 995.06274414 C242.37500965 991.17620305 238.65074043 987.54304797 234.95483398 983.87966919 C233.46285757 982.40068091 231.97422447 980.91839498 230.48632812 979.43530273 C227.32705235 976.28734751 224.16383977 973.1433673 221 970 C217.32809211 966.35185217 213.65790443 962.70200656 209.99194336 959.04788208 C208.53902092 957.60134931 207.08307719 956.15790833 205.62695312 954.71459961 C201.18762649 950.29160574 196.9173542 945.81752432 192.83789062 941.06274414 C189.37500965 937.17620305 185.65074043 933.54304797 181.95483398 929.87966919 C180.46285757 928.40068091 178.97422447 926.91839498 177.48632812 925.43530273 C174.32705235 922.28734751 171.16383977 919.1433673 168 916 C164.32809211 912.35185217 160.65790443 908.70200656 156.99194336 905.04788208 C155.53902092 903.60134931 154.08307719 902.15790833 152.62695312 900.71459961 C148.18762649 896.29160574 143.9173542 891.81752432 139.83789062 887.06274414 C136.37500965 883.17620305 132.65074043 879.54304797 128.95483398 875.87966919 C127.46285757 874.40068091 125.97422447 872.91839498 124.48632812 871.43530273 C121.32705235 868.28734751 118.16383977 865.1433673 115 862 C111.32809211 858.35185217 107.65790443 854.70200656 103.99194336 851.04788208 C102.53902092 849.60134931 101.08307719 848.15790833 99.62695312 846.71459961 C95.18762649 842.29160574 90.9173542 837.81752432 86.83789062 833.06274414 C83.37500965 829.17620305 79.65074043 825.54304797 75.95483398 821.87966919 C74.46285757 820.40068091 72.97422447 818.91839498 71.48632812 817.43530273 C68.32705235 814.28734751 65.16383977 811.1433673 62 808 C58.32809211 804.35185217 54.65790443 800.70200656 50.99194336 797.04788208 C49.53902092 795.60134931 48.08307719 794.15790833 46.62695312 792.71459961 C45.72912109 791.8200708 44.83128906 790.92554199 43.90625 790.00390625 C43.12572266 789.22861572 42.34519531 788.4533252 41.54101562 787.65454102 C38.24442269 784.21066564 35.13933414 780.58781044 32 777 C26.39 771.39 20.78 765.78 15 760 C14.67 883.09 14.34 1006.18 14 1133 C-79 1133 -79 1133 -92 1123 C-94.041875 1121.4325 -96.08375 1119.865 -98.1875 1118.25 C-103.39229332 1114.25129077 -108.57260961 1110.22160064 -113.75 1106.1875 C-121.8175508 1099.90305059 -129.93317278 1093.68354062 -138.06298828 1087.47998047 C-142.01999082 1084.45661906 -145.96467076 1081.41727147 -149.91015625 1078.37890625 C-151.95847742 1076.80188021 -154.00794455 1075.22634141 -156.05859375 1073.65234375 C-162.30768492 1068.8543524 -168.53524417 1064.02989136 -174.75 1059.1875 C-182.8175508 1052.90305059 -190.93317278 1046.68354062 -199.06298828 1040.47998047 C-203.01999082 1037.45661906 -206.96467076 1034.41727147 -210.91015625 1031.37890625 C-212.95847742 1029.80188021 -215.00794455 1028.22634141 -217.05859375 1026.65234375 C-223.30768492 1021.8543524 -229.53524417 1017.02989136 -235.75 1012.1875 C-243.8175508 1005.90305059 -251.93317278 999.68354062 -260.06298828 993.47998047 C-264.01999082 990.45661906 -267.96467076 987.41727147 -271.91015625 984.37890625 C-273.95847742 982.80188021 -276.00794455 981.22634141 -278.05859375 979.65234375 C-284.30768492 974.8543524 -290.53524417 970.02989136 -296.75 965.1875 C-304.8175508 958.90305059 -312.93317278 952.68354062 -321.06298828 946.47998047 C-325.01999082 943.45661906 -328.96467076 940.41727147 -332.91015625 937.37890625 C-334.95847742 935.80188021 -337.00794455 934.22634141 -339.05859375 932.65234375 C-345.30768492 927.8543524 -351.53524417 923.02989136 -357.75 918.1875 C-365.8175508 911.90305059 -373.93317278 905.68354062 -382.06298828 899.47998047 C-386.01999082 896.45661906 -389.96467076 893.41727147 -393.91015625 890.37890625 C-395.95847742 888.80188021 -398.00794455 887.22634141 -400.05859375 885.65234375 C-406.30768492 880.8543524 -412.53524417 876.02989136 -418.75 871.1875 C-426.8175508 864.90305059 -434.93317278 858.68354062 -443.06298828 852.47998047 C-447.01999082 849.45661906 -450.96467076 846.41727147 -454.91015625 843.37890625 C-456.95847742 841.80188021 -459.00794455 840.22634141 -461.05859375 838.65234375 C-467.30768492 833.8543524 -473.53524417 829.02989136 -479.75 824.1875 C-487.8175508 817.90305059 -495.93317278 811.68354062 -504.06298828 805.47998047 C-508.01999082 802.45661906 -511.96467076 799.41727147 -515.91015625 796.37890625 C-517.95847742 794.80188021 -520.00794455 793.22634141 -522.05859375 791.65234375 C-528.30768492 786.8543524 -534.53524417 782.02989136 -540.75 777.1875 C-548.8175508 770.90305059 -556.93317278 764.68354062 -565.06298828 758.47998047 C-569.01999082 755.45661906 -572.96467076 752.41727147 -576.91015625 749.37890625 C-578.95847742 747.80188021 -581.00794455 746.22634141 -583.05859375 744.65234375 C-589.30768492 739.8543524 -595.53524417 735.02989136 -601.75 730.1875 C-609.8175508 723.90305059 -617.93317278 717.68354062 -626.06298828 711.47998047 C-630.01999082 708.45661906 -633.96467076 705.41727147 -637.91015625 702.37890625 C-639.95847742 700.80188021 -642.00794455 699.22634141 -644.05859375 697.65234375 C-650.53215968 692.68200286 -656.99003576 687.69165827 -663.4375 682.6875 C-664.19506592 682.1006543 -664.95263184 681.51380859 -665.7331543 680.90917969 C-666.45929932 680.34489258 -667.18544434 679.78060547 -667.93359375 679.19921875 C-668.57353271 678.70252686 -669.21347168 678.20583496 -669.87280273 677.6940918 C-672.61824085 675.50763534 -675.30377069 673.24685776 -678 671 C-678 640.31 -678 609.62 -678 578 C-480.66 578 -283.32 578 -80 578 C-80.33 563.48 -80.66 548.96 -81 534 C-81.31141932 509.73264121 -81.31141932 509.73264121 -81.37826538 501.91168213 C-81.39504762 500.04039227 -81.41186288 498.16910271 -81.42870712 496.29781342 C-81.4413447 494.87576019 -81.4413447 494.87576019 -81.45423758 493.42497861 C-81.50046657 488.29844049 -81.55018365 483.17193576 -81.59938049 478.04542542 C-81.69469209 468.0559873 -81.7868416 458.06652261 -81.87770445 448.07704314 C-81.95203782 439.90908828 -82.02746197 431.74114413 -82.10360527 423.57320595 C-82.1200542 421.80820505 -82.1200542 421.80820505 -82.13683544 420.00754756 C-82.15914118 417.61418753 -82.18144765 415.2208275 -82.20375483 412.82746748 C-82.41177964 390.4915218 -82.61597702 368.15554236 -82.81896006 345.81955037 C-83.00246576 325.63979405 -83.19073948 305.46008564 -83.38135714 285.28039535 C-83.57915197 264.33605461 -83.77353932 243.39168455 -83.96453851 222.4472807 C-84.07099277 210.7798032 -84.17860636 199.1123398 -84.28978157 187.44490623 C-84.8744191 125.96159715 -85.11929703 64.48608435 -85 3 C-79.34698814 2.9483774 -73.69397532 2.8968628 -68.04096162 2.84544218 C-66.12355067 2.82798665 -64.20613997 2.81050317 -62.28872955 2.79298961 C-52.58159826 2.70434287 -42.87448767 2.61572875 -33.16722167 2.54300845 C-29.72121134 2.51531854 -26.2753337 2.47873902 -22.82943726 2.43954468 C-21.10705868 2.42183194 -19.38463715 2.40803876 -17.66220093 2.39730835 C-15.05667942 2.38032175 -12.45156398 2.35099169 -9.84619141 2.31884766 C-9.07581354 2.31667551 -8.30543568 2.31450336 -7.51171303 2.3122654 C-3.29712251 2.38536796 -3.29712251 2.38536796 0 0 Z " fill="#FF8FE7" transform="translate(782,218)"/>
<path d="M0 0 C3.07486553 1.37149237 5.18314469 2.93451106 7.5559082 5.31298828 C8.23373856 5.987742 8.91156891 6.66249573 9.60993958 7.35769653 C10.33291733 8.0878598 11.05589508 8.81802307 11.80078125 9.5703125 C12.55538132 10.32537079 13.30998138 11.08042908 14.08744812 11.85836792 C15.68428739 13.45822751 17.27869627 15.06051605 18.87084961 16.66503906 C21.28779873 19.10011349 23.71252165 21.52722151 26.13867188 23.953125 C27.69317839 25.5125524 29.24722932 27.07243411 30.80078125 28.6328125 C31.87613884 29.70983932 31.87613884 29.70983932 32.97322083 30.80862427 C36.20633075 34.07174606 39.35221071 37.3613268 42.3425293 40.84912109 C46.41196063 45.56074567 50.81091732 49.92410024 55.23036194 54.30552673 C56.75593977 55.81812332 58.27818086 57.33401202 59.79968262 58.85070801 C63.03028953 62.06999112 66.26483223 65.28530112 69.5 68.5 C73.25451127 72.2307565 77.00730613 75.96320751 80.75587463 79.69993591 C82.24203689 81.17970556 83.73121996 82.65638565 85.22058105 84.13293457 C89.70879577 88.60499684 94.03297938 93.12317287 98.15637207 97.93151855 C101.67961143 101.88446108 105.47112697 105.57863046 109.23036194 109.30552673 C110.75593977 110.81812332 112.27818086 112.33401202 113.79968262 113.85070801 C117.03028953 117.06999112 120.26483223 120.28530112 123.5 123.5 C127.25451127 127.2307565 131.00730613 130.96320751 134.75587463 134.69993591 C136.24203689 136.17970556 137.73121996 137.65638565 139.22058105 139.13293457 C143.70879577 143.60499684 148.03297938 148.12317287 152.15637207 152.93151855 C155.67961143 156.88446108 159.47112697 160.57863046 163.23036194 164.30552673 C164.75593977 165.81812332 166.27818086 167.33401202 167.79968262 168.85070801 C171.03028953 172.06999112 174.26483223 175.28530112 177.5 178.5 C181.25451127 182.2307565 185.00730613 185.96320751 188.75587463 189.69993591 C190.24203689 191.17970556 191.73121996 192.65638565 193.22058105 194.13293457 C197.70879577 198.60499684 202.03297938 203.12317287 206.15637207 207.93151855 C209.67961143 211.88446108 213.47112697 215.57863046 217.23036194 219.30552673 C218.75593977 220.81812332 220.27818086 222.33401202 221.79968262 223.85070801 C225.03028953 227.06999112 228.26483223 230.28530112 231.5 233.5 C235.25451127 237.2307565 239.00730613 240.96320751 242.75587463 244.69993591 C244.24203689 246.17970556 245.73121996 247.65638565 247.22058105 249.13293457 C251.70879577 253.60499684 256.03297938 258.12317287 260.15637207 262.93151855 C263.67961143 266.88446108 267.47112697 270.57863046 271.23036194 274.30552673 C272.75593977 275.81812332 274.27818086 277.33401202 275.79968262 278.85070801 C279.03028953 282.06999112 282.26483223 285.28530112 285.5 288.5 C289.25451127 292.2307565 293.00730613 295.96320751 296.75587463 299.69993591 C298.24203689 301.17970556 299.73121996 302.65638565 301.22058105 304.13293457 C305.70879577 308.60499684 310.03297938 313.12317287 314.15637207 317.93151855 C317.67961143 321.88446108 321.47112697 325.57863046 325.23036194 329.30552673 C326.75593977 330.81812332 328.27818086 332.33401202 329.79968262 333.85070801 C333.03028953 337.06999112 336.26483223 340.28530112 339.5 343.5 C343.25451127 347.2307565 347.00730613 350.96320751 350.75587463 354.69993591 C352.24203689 356.17970556 353.73121996 357.65638565 355.22058105 359.13293457 C359.70879577 363.60499684 364.03297938 368.12317287 368.15637207 372.93151855 C371.67961143 376.88446108 375.47112697 380.57863046 379.23036194 384.30552673 C380.75593977 385.81812332 382.27818086 387.33401202 383.79968262 388.85070801 C387.03028953 392.06999112 390.26483223 395.28530112 393.5 398.5 C397.25451127 402.2307565 401.00730613 405.96320751 404.75587463 409.69993591 C406.24203689 411.17970556 407.73121996 412.65638565 409.22058105 414.13293457 C413.79232524 418.68822569 418.20742139 423.29137659 422.40710449 428.19116211 C424.99638577 431.13146175 427.80398982 433.83133171 430.625 436.546875 C431.83781415 437.73248545 433.05003781 438.9187002 434.26171875 440.10546875 C436.14354601 441.94375123 438.02888035 443.77779578 439.92431641 445.60205078 C441.7734233 447.3848984 443.60648757 449.18297446 445.4375 450.984375 C446.29819092 451.8016507 446.29819092 451.8016507 447.17626953 452.63543701 C448.74609375 454.19433594 448.74609375 454.19433594 451 457 C450.6953207 460.21431583 449.50872714 461.86390417 447.25952148 464.09692383 C446.39743324 464.96351372 446.39743324 464.96351372 445.51792908 465.84761047 C444.57899559 466.76802376 444.57899559 466.76802376 443.62109375 467.70703125 C442.97560074 468.35065109 442.33010773 468.99427094 441.66505432 469.65739441 C440.29573844 471.0199875 438.92282934 472.37897772 437.54663086 473.73461914 C435.46286912 475.78750676 433.38969936 477.85060293 431.31835938 479.91601562 C429.9823854 481.24280661 428.64581491 482.56899726 427.30859375 483.89453125 C426.69680771 484.50206741 426.08502167 485.10960358 425.45469666 485.73554993 C422.35957533 488.78084387 419.21055868 491.71773813 415.92504883 494.55737305 C412.39783778 497.61086985 409.11878139 500.82284233 405.890625 504.1875 C404.79615886 505.30916579 403.70109014 506.43024387 402.60546875 507.55078125 C400.91203557 509.28777541 399.22288571 511.02826248 397.54345703 512.77880859 C395.89960499 514.48892591 394.24055037 516.1829595 392.578125 517.875 C392.07702209 518.40504639 391.57591919 518.93509277 391.05963135 519.48120117 C389.62207031 520.9296875 389.62207031 520.9296875 387 523 C384.46177148 522.7955209 383.30458541 522.28952098 381.45495605 520.53137207 C380.94839478 519.89775757 380.4418335 519.26414307 379.91992188 518.61132812 C375.80382339 513.69243479 371.32232619 509.20799704 366.76963806 504.69447327 C365.24406023 503.18187668 363.72181914 501.66598798 362.20031738 500.14929199 C358.96971047 496.93000888 355.73516777 493.71469888 352.5 490.5 C348.74548873 486.7692435 344.99269387 483.03679249 341.24412537 479.30006409 C339.75796311 477.82029444 338.26878004 476.34361435 336.77941895 474.86706543 C332.29120423 470.39500316 327.96702062 465.87682713 323.84362793 461.06848145 C320.32038857 457.11553892 316.52887303 453.42136954 312.76963806 449.69447327 C311.24406023 448.18187668 309.72181914 446.66598798 308.20031738 445.14929199 C304.96971047 441.93000888 301.73516777 438.71469888 298.5 435.5 C294.74548873 431.7692435 290.99269387 428.03679249 287.24412537 424.30006409 C285.75796311 422.82029444 284.26878004 421.34361435 282.77941895 419.86706543 C278.29120423 415.39500316 273.96702062 410.87682713 269.84362793 406.06848145 C266.32038857 402.11553892 262.52887303 398.42136954 258.76963806 394.69447327 C257.24406023 393.18187668 255.72181914 391.66598798 254.20031738 390.14929199 C250.96971047 386.93000888 247.73516777 383.71469888 244.5 380.5 C240.74548873 376.7692435 236.99269387 373.03679249 233.24412537 369.30006409 C231.75796311 367.82029444 230.26878004 366.34361435 228.77941895 364.86706543 C224.29120423 360.39500316 219.96702062 355.87682713 215.84362793 351.06848145 C212.32038857 347.11553892 208.52887303 343.42136954 204.76963806 339.69447327 C203.24406023 338.18187668 201.72181914 336.66598798 200.20031738 335.14929199 C196.96971047 331.93000888 193.73516777 328.71469888 190.5 325.5 C186.74548873 321.7692435 182.99269387 318.03679249 179.24412537 314.30006409 C177.75796311 312.82029444 176.26878004 311.34361435 174.77941895 309.86706543 C170.29120423 305.39500316 165.96702062 300.87682713 161.84362793 296.06848145 C158.32038857 292.11553892 154.52887303 288.42136954 150.76963806 284.69447327 C149.24406023 283.18187668 147.72181914 281.66598798 146.20031738 280.14929199 C142.96971047 276.93000888 139.73516777 273.71469888 136.5 270.5 C132.74548873 266.7692435 128.99269387 263.03679249 125.24412537 259.30006409 C123.75796311 257.82029444 122.26878004 256.34361435 120.77941895 254.86706543 C116.29120423 250.39500316 111.96702062 245.87682713 107.84362793 241.06848145 C104.32038857 237.11553892 100.52887303 233.42136954 96.76963806 229.69447327 C95.24406023 228.18187668 93.72181914 226.66598798 92.20031738 225.14929199 C88.96971047 221.93000888 85.73516777 218.71469888 82.5 215.5 C78.74548873 211.7692435 74.99269387 208.03679249 71.24412537 204.30006409 C69.75796311 202.82029444 68.26878004 201.34361435 66.77941895 199.86706543 C62.29120423 195.39500316 57.96702062 190.87682713 53.84362793 186.06848145 C50.32038857 182.11553892 46.52887303 178.42136954 42.76963806 174.69447327 C41.24406023 173.18187668 39.72181914 171.66598798 38.20031738 170.14929199 C34.96971047 166.93000888 31.73516777 163.71469888 28.5 160.5 C24.74548873 156.7692435 20.99269387 153.03679249 17.24412537 149.30006409 C15.75796311 147.82029444 14.26878004 146.34361435 12.77941895 144.86706543 C8.28685277 140.39066737 3.95759276 135.86816477 -0.1697998 131.05505371 C-3.62935429 127.17046759 -7.35187923 123.54045136 -11.04516602 119.87966919 C-12.53714243 118.40068091 -14.02577553 116.91839498 -15.51367188 115.43530273 C-18.67294765 112.28734751 -21.83616023 109.1433673 -25 106 C-28.67190789 102.35185217 -32.34209557 98.70200656 -36.00805664 95.04788208 C-37.46097908 93.60134931 -38.91692281 92.15790833 -40.37304688 90.71459961 C-44.93895825 86.16548673 -49.3785462 81.57749952 -53.55751038 76.6685791 C-55.73358497 74.15143615 -58.06855248 71.83649618 -60.4375 69.5 C-61.30246094 68.6440625 -62.16742187 67.788125 -63.05859375 66.90625 C-64.01958984 65.96265625 -64.01958984 65.96265625 -65 65 C-60.00891795 58.97751643 -54.60516658 53.45999304 -49.0703125 47.9375 C-48.11141661 46.97792856 -47.15266904 46.01820889 -46.19406128 45.05834961 C-44.19365581 43.05647824 -42.19147506 41.05640462 -40.18798828 39.05761719 C-37.64082354 36.51614125 -35.09816577 33.9702112 -32.5568409 31.42289734 C-30.58019947 29.44261358 -28.60114688 27.46475316 -26.62139511 25.48757935 C-25.23324248 24.1004033 -23.84707682 22.71123978 -22.46096802 21.32202148 C-17.97324622 16.85073054 -13.43338191 12.51107425 -8.61740112 8.39378357 C-6.65409737 6.70192094 -4.81323755 4.91351334 -3 3.0625 C-2.4225 2.47597656 -1.845 1.88945313 -1.25 1.28515625 C-0.8375 0.86105469 -0.425 0.43695313 0 0 Z " fill="#FF8FE7" transform="translate(915,81)"/>
</svg>
